<mxfile host="app.diagrams.net" agent="Mozilla/5.0 (Windows NT 10.0; Win64; x64) AppleWebKit/537.36 (KHTML, like Gecko) Chrome/133.0.0.0 Safari/537.36" version="26.0.16">
  <diagram name="Page-1" id="O4VQYFIOuapUG5SdJrEE">
    <mxGraphModel dx="1050" dy="530" grid="1" gridSize="10" guides="1" tooltips="1" connect="1" arrows="1" fold="1" page="1" pageScale="1" pageWidth="850" pageHeight="1100" math="0" shadow="0">
      <root>
        <mxCell id="0" />
        <mxCell id="1" parent="0" />
        <mxCell id="G6Ie47jSdxp5BpZoAiIq-4" style="edgeStyle=orthogonalEdgeStyle;rounded=0;orthogonalLoop=1;jettySize=auto;html=1;exitX=0.5;exitY=1;exitDx=0;exitDy=0;entryX=0.5;entryY=0;entryDx=0;entryDy=0;" edge="1" parent="1" source="G6Ie47jSdxp5BpZoAiIq-1" target="G6Ie47jSdxp5BpZoAiIq-2">
          <mxGeometry relative="1" as="geometry" />
        </mxCell>
        <mxCell id="G6Ie47jSdxp5BpZoAiIq-1" value="STAKE HOLDERS" style="ellipse;whiteSpace=wrap;html=1;fillColor=light-dark(#FF71AB,var(--ge-dark-color, #121212));" vertex="1" parent="1">
          <mxGeometry x="160" y="140" width="120" height="80" as="geometry" />
        </mxCell>
        <mxCell id="G6Ie47jSdxp5BpZoAiIq-8" style="edgeStyle=orthogonalEdgeStyle;rounded=0;orthogonalLoop=1;jettySize=auto;html=1;exitX=1;exitY=0.5;exitDx=0;exitDy=0;" edge="1" parent="1" source="G6Ie47jSdxp5BpZoAiIq-2" target="G6Ie47jSdxp5BpZoAiIq-3">
          <mxGeometry relative="1" as="geometry" />
        </mxCell>
        <mxCell id="G6Ie47jSdxp5BpZoAiIq-2" value="DATA ACQUISITION" style="rounded=1;whiteSpace=wrap;html=1;fillColor=light-dark(#66B2FF,var(--ge-dark-color, #121212));" vertex="1" parent="1">
          <mxGeometry x="160" y="270" width="120" height="60" as="geometry" />
        </mxCell>
        <mxCell id="G6Ie47jSdxp5BpZoAiIq-9" style="edgeStyle=orthogonalEdgeStyle;rounded=0;orthogonalLoop=1;jettySize=auto;html=1;exitX=1;exitY=0.5;exitDx=0;exitDy=0;" edge="1" parent="1" source="G6Ie47jSdxp5BpZoAiIq-3" target="G6Ie47jSdxp5BpZoAiIq-6">
          <mxGeometry relative="1" as="geometry" />
        </mxCell>
        <mxCell id="G6Ie47jSdxp5BpZoAiIq-3" value="DATA ANALYSIS" style="rounded=1;whiteSpace=wrap;html=1;fillColor=light-dark(#66B2FF,var(--ge-dark-color, #121212));" vertex="1" parent="1">
          <mxGeometry x="320" y="270" width="120" height="60" as="geometry" />
        </mxCell>
        <mxCell id="G6Ie47jSdxp5BpZoAiIq-11" style="edgeStyle=orthogonalEdgeStyle;rounded=0;orthogonalLoop=1;jettySize=auto;html=1;exitX=1;exitY=0;exitDx=0;exitDy=0;" edge="1" parent="1" source="G6Ie47jSdxp5BpZoAiIq-6" target="G6Ie47jSdxp5BpZoAiIq-10">
          <mxGeometry relative="1" as="geometry">
            <Array as="points">
              <mxPoint x="600" y="260" />
              <mxPoint x="690" y="260" />
            </Array>
          </mxGeometry>
        </mxCell>
        <mxCell id="G6Ie47jSdxp5BpZoAiIq-6" value="VISUALIZATION" style="rounded=1;whiteSpace=wrap;html=1;fillColor=light-dark(#66B2FF,var(--ge-dark-color, #121212));" vertex="1" parent="1">
          <mxGeometry x="480" y="270" width="120" height="60" as="geometry" />
        </mxCell>
        <mxCell id="G6Ie47jSdxp5BpZoAiIq-14" style="edgeStyle=orthogonalEdgeStyle;rounded=0;orthogonalLoop=1;jettySize=auto;html=1;" edge="1" parent="1" source="G6Ie47jSdxp5BpZoAiIq-10" target="G6Ie47jSdxp5BpZoAiIq-1">
          <mxGeometry relative="1" as="geometry">
            <mxPoint x="690" y="140" as="targetPoint" />
          </mxGeometry>
        </mxCell>
        <mxCell id="G6Ie47jSdxp5BpZoAiIq-10" value="DEPLOYEMENT" style="rounded=1;whiteSpace=wrap;html=1;fillColor=light-dark(#66FF66,var(--ge-dark-color, #121212));" vertex="1" parent="1">
          <mxGeometry x="630" y="180" width="120" height="60" as="geometry" />
        </mxCell>
        <mxCell id="G6Ie47jSdxp5BpZoAiIq-15" value="Stake Holder&amp;nbsp;&lt;div&gt;needs&lt;/div&gt;" style="ellipse;shape=cloud;whiteSpace=wrap;html=1;fillColor=light-dark(#FFFF00,var(--ge-dark-color, #121212));" vertex="1" parent="1">
          <mxGeometry x="160" y="60" width="120" height="80" as="geometry" />
        </mxCell>
        <mxCell id="G6Ie47jSdxp5BpZoAiIq-16" value="COLLECTING&amp;nbsp;&lt;div&gt;DATA&lt;/div&gt;" style="ellipse;shape=cloud;whiteSpace=wrap;html=1;fillColor=light-dark(#FFFF00,#000000);" vertex="1" parent="1">
          <mxGeometry x="160" y="330" width="120" height="80" as="geometry" />
        </mxCell>
        <mxCell id="G6Ie47jSdxp5BpZoAiIq-17" value="CLEANING AND&amp;nbsp;&lt;div&gt;PREPROCESSING&lt;/div&gt;" style="ellipse;shape=cloud;whiteSpace=wrap;html=1;fillColor=light-dark(#FFFF00,var(--ge-dark-color, #121212));" vertex="1" parent="1">
          <mxGeometry x="300" y="330" width="160" height="90" as="geometry" />
        </mxCell>
        <mxCell id="G6Ie47jSdxp5BpZoAiIq-18" value="GETTING INSIGHTS USING VISUALIZATION" style="ellipse;shape=cloud;whiteSpace=wrap;html=1;fillColor=light-dark(#FFFF00,var(--ge-dark-color, #121212));" vertex="1" parent="1">
          <mxGeometry x="480" y="330" width="190" height="90" as="geometry" />
        </mxCell>
        <mxCell id="G6Ie47jSdxp5BpZoAiIq-19" value="VALIDATION &amp;amp; FEEDBACK LOOP" style="ellipse;shape=cloud;whiteSpace=wrap;html=1;fillColor=light-dark(#FFFF00,var(--ge-dark-color, #121212));" vertex="1" parent="1">
          <mxGeometry x="340" y="100" width="300" height="80" as="geometry" />
        </mxCell>
        <mxCell id="G6Ie47jSdxp5BpZoAiIq-20" value="STAKEHOLDERS MAKING INSIGHTS" style="ellipse;shape=cloud;whiteSpace=wrap;html=1;fillColor=light-dark(#FFFF00,var(--ge-dark-color, #121212));" vertex="1" parent="1">
          <mxGeometry x="750" y="140" width="200" height="140" as="geometry" />
        </mxCell>
      </root>
    </mxGraphModel>
  </diagram>
</mxfile>
